USFL
nRows=261
nColumns=2
inDegrees=yes
endheader
time	tib_ant_r	
3.39293	 72.270582	
3.42619	 72.283020	
3.45946	 72.281584	
3.49272	 72.278678	
3.52598	 72.263909	
3.55925	 72.264254	
3.59251	 72.257407	
3.62578	 72.269873	
3.65904	 72.277516	
3.6923	 72.267005	
3.72557	 72.264797	
3.75883	 72.241906	
3.7921	 72.237281	
3.82536	 72.249801	
3.85862	 72.254892	
3.89189	 72.219664	
3.92515	 72.231215	
3.95842	 72.214171	
3.99168	 72.211491	
4.02494	 72.200380	
4.05821	 72.125970	
4.09147	 72.104141	
4.12474	 72.102213	
4.158	 72.060853	
4.19126	 72.104653	
4.22453	 72.126312	
4.25779	 72.150994	
4.29106	 72.151051	
4.32432	 72.122698	
4.35758	 72.132694	
4.39085	 72.090970	
4.42411	 72.067767	
4.45738	 72.063981	
4.49064	 72.084524	
4.5239	 72.099417	
4.55717	 72.102932	
4.59043	 72.102514	
4.6237	 72.096057	
4.65696	 72.095976	
4.69022	 72.104026	
4.72349	 72.105134	
4.75675	 72.057453	
4.79002	 72.027488	
4.82328	 72.040601	
4.85654	 72.019345	
4.88981	 72.025221	
4.92307	 72.035612	
4.95634	 72.046258	
4.9896	 72.016417	
5.02286	 72.060630	
5.05613	 72.086323	
5.08939	 72.108569	
5.12266	 72.083317	
5.15592	 72.046224	
5.18918	 72.051296	
5.22245	 72.055662	
5.25571	 72.056120	
5.28898	 72.133353	
5.32224	 72.142868	
5.3555	 72.156050	
5.38877	 72.155746	
5.42203	 72.166922	
5.4553	 72.178904	
5.48856	 72.145652	
5.52182	 72.127399	
5.55509	 72.123870	
5.58835	 71.824144	
5.62162	 71.493290	
5.65488	 71.238049	
5.68814	 70.444119	
5.72141	 70.424848	
5.75467	 70.320458	
5.78794	 70.317026	
5.8212	 70.425522	
5.85446	 41.369128	
5.88773	 41.073042	
5.92099	 40.968484	
5.95426	 37.544210	
5.98752	 37.265821	
6.02078	 37.068126	
6.05405	 36.939502	
6.08731	 36.804493	
6.12058	 36.739298	
6.15384	 36.654464	
6.1871	 36.620396	
6.22037	 36.600085	
6.25363	 36.583771	
6.2869	 36.584773	
6.32016	 36.619910	
6.35342	 36.604672	
6.38669	 36.856165	
6.41995	 36.800949	
6.45322	 37.065126	
6.48648	 36.972256	
6.51974	 37.035166	
6.55301	 37.205748	
6.58627	 37.397430	
6.61954	 37.426938	
6.6528	 37.469740	
6.68606	 41.600592	
6.71933	 41.672562	
6.75259	 41.785007	
6.78586	 41.843708	
6.81912	 42.086643	
6.85238	 42.183130	
6.88565	 42.083008	
6.91891	 42.187096	
6.95218	 42.128003	
6.98544	 42.172852	
7.0187	 42.198833	
7.05197	 42.144494	
7.08523	 42.071954	
7.1185	 55.368707	
7.15176	 55.261262	
7.18502	 55.184546	
7.21829	 55.208180	
7.25155	 55.239931	
7.28482	 55.207896	
7.31808	 55.230086	
7.35134	 55.151622	
7.38461	 55.100224	
7.41787	 55.156804	
7.45114	 55.061260	
7.4844	 55.007598	
7.51766	 54.995103	
7.55093	 54.991256	
7.58419	 55.047695	
7.61746	 55.026866	
7.65072	 55.028996	
7.68398	 55.115181	
7.71725	 55.279271	
7.75051	 55.321236	
7.78378	 55.298330	
7.81704	 55.266395	
7.8503	 55.287734	
7.88357	 55.325869	
7.91683	 55.362886	
7.9501	 55.290363	
7.98336	 55.399462	
8.01662	 55.496884	
8.04989	 55.513466	
8.08315	 55.602274	
8.11642	 55.594813	
8.14968	 55.619939	
8.18294	 55.697923	
8.21621	 55.702047	
8.24947	 55.513221	
8.28274	 55.486121	
8.316	 55.450795	
8.34926	 55.324576	
8.38253	 55.297358	
8.41579	 55.257965	
8.44906	 55.309091	
8.48232	 55.209813	
8.51558	 55.410800	
8.54885	 55.432639	
8.58211	 55.335833	
8.61538	 55.313202	
8.64864	 55.293561	
8.6819	 55.282270	
8.71517	 55.248310	
8.74843	 55.206707	
8.7817	 55.188384	
8.81496	 55.089413	
8.84822	 55.025668	
8.88149	 55.033223	
8.91475	 54.961157	
8.94802	 54.983576	
8.98128	 54.920142	
9.01454	 54.977324	
9.04781	 54.968763	
9.08107	 54.933304	
9.11434	 54.878271	
9.1476	 54.819140	
9.18086	 54.897438	
9.21413	 54.864771	
9.24739	 54.874246	
9.28066	 54.763067	
9.31392	 54.757379	
9.34718	 54.402764	
9.38045	 54.353816	
9.41371	 54.267044	
9.44698	 54.062492	
9.48024	 54.010610	
9.5135	 54.010782	
9.54677	 53.933151	
9.58003	 53.901329	
9.6133	 53.807277	
9.64656	 53.652045	
9.67982	 53.656818	
9.71309	 53.502166	
9.74635	 53.525392	
9.77962	 53.443543	
9.81288	 53.286761	
9.84614	 53.288241	
9.87941	 53.219887	
9.91267	 53.098214	
9.94594	 53.156829	
9.9792	 53.211444	
10.0125	 53.157202	
10.0457	 53.148106	
10.079	 53.158361	
10.1123	 53.130191	
10.1455	 53.143438	
10.1788	 53.057903	
10.212	 53.064849	
10.2453	 52.983312	
10.2786	 52.995610	
10.3118	 52.994237	
10.3451	 52.966735	
10.3784	 52.999445	
10.4116	 53.028071	
10.4449	 53.085353	
10.4782	 53.116090	
10.5114	 53.090974	
10.5447	 53.113790	
10.578	 53.123122	
10.6112	 53.175547	
10.6445	 53.164789	
10.6777	 53.194484	
10.711	 53.273040	
10.7443	 53.477190	
10.7775	 53.542957	
10.8108	 53.560846	
10.8441	 53.639745	
10.8773	 54.020796	
10.9106	 54.256749	
10.9439	 54.324888	
10.9771	 54.458460	
11.0104	 54.680134	
11.0436	 54.963012	
11.0769	 55.277596	
11.1102	 55.628291	
11.1434	 55.908671	
11.1767	 56.348630	
11.21	 56.392105	
11.2432	 56.586769	
11.2765	 56.717892	
11.3098	 56.782597	
11.343	 57.002455	
11.3763	 57.093132	
11.4096	 57.101502	
11.4428	 57.215105	
11.4761	 57.202899	
11.5093	 57.179214	
11.5426	 57.396844	
11.5759	 57.728665	
11.6091	 57.934712	
11.6424	 58.036601	
11.6757	 58.231725	
11.7089	 58.283165	
11.7422	 58.340759	
11.7755	 58.455145	
11.8087	 58.443797	
11.842	 58.448589	
11.8752	 58.415070	
11.9085	 58.543851	
11.9418	 58.764420	
11.975	 58.794166	
12.0083	 58.822642	
12.0416	 58.878696	
